<svg xmlns="http://www.w3.org/2000/svg" viewBox="0 0 120 120" fill="none">
  <!-- Outer ring -->
  <circle cx="60" cy="60" r="58" fill="#1e3a8a"/>
  <circle cx="60" cy="60" r="58" fill="none" stroke="#f59e0b" stroke-width="3"/>
  <circle cx="60" cy="60" r="51" fill="none" stroke="#f59e0b" stroke-width="1.2"/>

  <!-- Star decorations top -->
  <polygon points="60,6 62,12 68,12 63,16 65,22 60,18 55,22 57,16 52,12 58,12" fill="#f59e0b"/>

  <!-- Torch body -->
  <rect x="56.5" y="42" width="7" height="22" rx="2" fill="#f59e0b"/>
  <!-- Torch bands -->
  <rect x="55" y="46" width="10" height="2" rx="1" fill="#d97706"/>
  <rect x="55" y="52" width="10" height="2" rx="1" fill="#d97706"/>

  <!-- Flame outer -->
  <path d="M60 16 C54 20 52 28 56 33 C57 30 59 28 60 30 C61 28 63 30 64 33 C68 28 66 20 60 16Z" fill="#ef4444"/>
  <!-- Flame middle -->
  <path d="M60 20 C57 23 56 28 59 31 C59.5 29 60 28 60 30 C60 28 60.5 29 61 31 C64 28 63 23 60 20Z" fill="#f97316"/>
  <!-- Flame inner -->
  <path d="M60 24 C58.5 26 58.5 29 60 30.5 C61.5 29 61.5 26 60 24Z" fill="#fbbf24"/>

  <!-- Open book bottom -->
  <path d="M28 72 C28 70 30 69 32 70 L58 74 L58 90 L32 86 C30 85.5 28 84 28 82 Z" fill="#e2e8f0"/>
  <path d="M92 72 C92 70 90 69 88 70 L62 74 L62 90 L88 86 C90 85.5 92 84 92 82 Z" fill="#e2e8f0"/>
  <rect x="57" y="73" width="6" height="18" rx="1" fill="#f59e0b"/>
  <!-- Book lines left page -->
  <line x1="34" y1="76" x2="55" y2="77.5" stroke="#94a3b8" stroke-width="1" stroke-linecap="round"/>
  <line x1="34" y1="79" x2="55" y2="80.5" stroke="#94a3b8" stroke-width="1" stroke-linecap="round"/>
  <line x1="34" y1="82" x2="55" y2="83.5" stroke="#94a3b8" stroke-width="1" stroke-linecap="round"/>
  <!-- Book lines right page -->
  <line x1="86" y1="76" x2="65" y2="77.5" stroke="#94a3b8" stroke-width="1" stroke-linecap="round"/>
  <line x1="86" y1="79" x2="65" y2="80.5" stroke="#94a3b8" stroke-width="1" stroke-linecap="round"/>
  <line x1="86" y1="82" x2="65" y2="83.5" stroke="#94a3b8" stroke-width="1" stroke-linecap="round"/>

  <!-- Text SMAN 1 -->
  <text x="60" y="101" font-size="10" font-family="Arial, sans-serif" font-weight="900" fill="white" text-anchor="middle" letter-spacing="1">SMAN 1</text>
  <!-- Text BELIMBING -->
  <text x="60" y="113" font-size="7.5" font-family="Arial, sans-serif" font-weight="700" fill="#f59e0b" text-anchor="middle" letter-spacing="2">BELIMBING</text>
</svg>
